<svg aria-hidden="true" style="position: absolute; width: 0; height: 0; overflow: hidden;" version="1.1" xmlns="http://www.w3.org/2000/svg" xmlns:xlink="http://www.w3.org/1999/xlink">
<defs>
<symbol id="icon-sedan" viewBox="0 0 70 32">
<path d="M17.567 20.975c3.107 0 5.627 2.468 5.627 5.512s-2.519 5.512-5.627 5.512c-3.107 0-5.627-2.468-5.627-5.512s2.519-5.512 5.627-5.512zM52.698 20.975c3.107 0 5.627 2.468 5.627 5.512s-2.519 5.512-5.627 5.512c-3.107 0-5.626-2.468-5.627-5.512s2.519-5.512 5.627-5.512zM28.683 15.505c0 1.146 0.976 2.069 2.158 2.014 1.107-0.051 1.959-0.986 1.959-2.072v-2.228h13.209l21.572 2.1c1.53 0.149 2.683 1.412 2.683 2.903-0 4.625-3.401 8.485-7.881 9.311 0.636-5.692-3.934-10.592-9.684-10.592-5.834 0-10.406 5.023-9.662 10.756h-15.806c0.744-5.741-3.836-10.756-9.663-10.756-5.752 0-10.32 4.901-9.684 10.592-3.425-0.636-6.265-3.059-7.377-6.289h1.828c1.17-0 2.112-0.956 2.056-2.114-0.052-1.085-1.006-1.92-2.114-1.92h-2.277c0.001-0.128 0.002-0.262 0.002-0.403 0-2.037 1.704-3.587 3.688-3.588h24.994v2.286zM27.975 9.186h-17.567l5.372-5.848c1.949-2.121 4.737-3.337 7.65-3.337h1.733l2.812 9.186zM36.145 0c4.232 0 7.983 2.489 9.555 6.339l1.163 2.847h-14.591l-2.811-9.186h6.684z"></path>
</symbol>

<symbol id="icon-suv" viewBox="0 0 59 32">
<path d="M14.669 19.039c3.89 0 6.907 3.458 6.35 7.341-0.321 2.237-1.817 4.171-3.951 5.036-2.448 0.993-5.249 0.377-7.066-1.552-1.579-1.677-1.646-3.476-1.684-3.484-0.559-3.898 2.476-7.341 6.35-7.341zM44.002 19.039c4.61 0 7.731 4.755 5.88 8.991-1.155 2.639-3.933 4.21-6.816 3.786-2.81-0.412-5.014-2.65-5.414-5.436-0.558-3.887 2.463-7.341 6.35-7.341zM23.95 12.878c0 0.978 0.814 1.765 1.801 1.719 0.925-0.044 1.637-0.841 1.637-1.767v-1.901h11.068l17.408 0.954c0.722 0.040 1.343 0.529 1.552 1.223 0.36 1.194 0.594 1.969 0.75 2.493h-1.396c-0.925 0-1.722 0.711-1.766 1.637-0.047 0.988 0.741 1.803 1.717 1.803h1.927c-0.218 2.966-2.093 5.59-4.799 6.733 0.173-5.615-4.341-10.173-9.846-10.173-5.755 0-10.349 4.957-9.81 10.781h-9.714c0.574-6.207-4.671-11.375-10.841-10.728v-4.724h10.312v1.949zM10.2 16.672c-3.526 1.804-5.719 5.589-5.342 9.699-2.704-0.156-4.855-2.407-4.855-5.152 0-0.784 0-1.508 0-2.18h1.948c0.949-0 1.719-0.77 1.719-1.72s-0.77-1.72-1.719-1.72h-1.949c-0.001-3.065-0.003-4.215 0.004-4.671h10.195v5.743zM30.181 0c3.534 0 6.667 2.123 7.979 5.408l0.841 2.105c-0.648-0.036 0.891-0.025-12.053-0.025l-2.245-7.488h5.478zM10.509 7.488h-9.525c0.428-1.37 1.051-3.367 1.961-6.281 0.224-0.718 0.889-1.207 1.641-1.207h7.421l-1.497 7.488zM23.359 7.488h-9.344l1.496-7.488h5.603l2.245 7.488z"></path>
</symbol>

<symbol id="icon-luxury" viewBox="0 0 78 32">
<path d="M19.519 19.262c3.452 0 6.251 2.851 6.252 6.368s-2.799 6.37-6.252 6.37c-3.453 0-6.252-2.852-6.252-6.37s2.799-6.368 6.252-6.368zM58.553 19.262c3.452 0 6.251 2.851 6.252 6.368s-2.799 6.37-6.252 6.37c-3.453 0-6.252-2.852-6.252-6.37s2.799-6.368 6.252-6.368zM42.298 0.682c0.893-0.91 2.341-0.91 3.234 0l6.604 6.729c7.9-0.205 17.244 2.030 24.825 6.672 0.688 0.421 1.109 1.179 1.109 1.997 0 5.344-3.779 9.805-8.757 10.759 0.706-6.576-4.37-12.236-10.76-12.236-6.482 0-11.563 5.803-10.736 12.427h-17.189c3.011-6.125 1.368-2.849 7.647-15.151 2.986-0.042 6.17-0.727 9.328-2.497l-5.306-5.404c-0.893-0.91-0.893-2.385 0-3.295zM28.645 2.576c1.214-0.356 2.481 0.359 2.83 1.596 0.626 2.215 1.045 3.699 1.332 4.714 0.421 1.49 0.263 3.088-0.439 4.464 0 0-1.664 3.258-3.465 6.79-1.903-3.362-5.439-5.536-9.384-5.537-6.391 0-11.468 5.661-10.76 12.24-3.256-0.617-6.070-2.732-7.606-5.825-0.392-0.789-0.311-1.738 0.208-2.446l1.698-2.316-2.354-2.302c-1.335-1.306-0.67-3.6 1.135-3.967 8.040-1.637 12.095-2.463 12.269-2.493 0.558-0.259 1.902-1.051 1.903-2.677 0-1.305 1.053-2.36 2.34-2.33 1.266 0.030 2.254 1.177 2.233 2.467-0.018 1.085-0.252 2.037-0.618 2.865 2.854 0.381 5.648 1.061 8.354 2.036l-1.243-4.394c-0.349-1.237 0.354-2.528 1.568-2.884z"></path>
</symbol>
</defs>
</svg>
